<mxfile host="app.diagrams.net" modified="2023-05-11T07:15:10.120Z" agent="Mozilla/5.0 (Windows NT 10.0; Win64; x64) AppleWebKit/537.36 (KHTML, like Gecko) Chrome/113.0.0.0 Safari/537.36" etag="klfv2RlzehPLrU_xfCB4" version="21.2.9" type="device">
  <diagram name="第 1 页" id="luMZmVBvZCn-gKmod2Wi">
    <mxGraphModel dx="2261" dy="788" grid="1" gridSize="10" guides="1" tooltips="1" connect="1" arrows="1" fold="1" page="1" pageScale="1" pageWidth="827" pageHeight="1169" math="0" shadow="0">
      <root>
        <mxCell id="0" />
        <mxCell id="1" parent="0" />
        <mxCell id="t5MqxrgyaX5uheQcPYb9-2" value="" style="edgeStyle=orthogonalEdgeStyle;rounded=0;orthogonalLoop=1;jettySize=auto;html=1;" parent="1" source="x7qQuys_Iyx2ELAfLeF6-1" target="t5MqxrgyaX5uheQcPYb9-1" edge="1">
          <mxGeometry relative="1" as="geometry" />
        </mxCell>
        <mxCell id="x7qQuys_Iyx2ELAfLeF6-1" value="&lt;div style=&quot;color: rgb(204, 204, 204); background-color: rgb(31, 31, 31); font-family: Consolas, &amp;quot;Courier New&amp;quot;, monospace; font-size: 14px; line-height: 19px;&quot;&gt;&lt;div style=&quot;line-height: 19px;&quot;&gt;Father:DataProvider&lt;/div&gt;&lt;/div&gt;" style="rounded=0;whiteSpace=wrap;html=1;" parent="1" vertex="1">
          <mxGeometry x="260" y="210" width="290" height="60" as="geometry" />
        </mxCell>
        <mxCell id="YeGRoMZNGMUW2OoXfC3H-44" style="edgeStyle=orthogonalEdgeStyle;rounded=0;orthogonalLoop=1;jettySize=auto;html=1;entryX=0.5;entryY=0;entryDx=0;entryDy=0;" edge="1" parent="1" source="t5MqxrgyaX5uheQcPYb9-1" target="t5MqxrgyaX5uheQcPYb9-3">
          <mxGeometry relative="1" as="geometry">
            <Array as="points">
              <mxPoint x="405" y="450" />
              <mxPoint x="65" y="450" />
            </Array>
          </mxGeometry>
        </mxCell>
        <mxCell id="YeGRoMZNGMUW2OoXfC3H-45" style="edgeStyle=orthogonalEdgeStyle;rounded=0;orthogonalLoop=1;jettySize=auto;html=1;entryX=0.5;entryY=0;entryDx=0;entryDy=0;" edge="1" parent="1" source="t5MqxrgyaX5uheQcPYb9-1" target="t5MqxrgyaX5uheQcPYb9-7">
          <mxGeometry relative="1" as="geometry" />
        </mxCell>
        <mxCell id="YeGRoMZNGMUW2OoXfC3H-47" style="edgeStyle=orthogonalEdgeStyle;rounded=0;orthogonalLoop=1;jettySize=auto;html=1;" edge="1" parent="1" source="t5MqxrgyaX5uheQcPYb9-1" target="t5MqxrgyaX5uheQcPYb9-5">
          <mxGeometry relative="1" as="geometry">
            <Array as="points">
              <mxPoint x="405" y="450" />
              <mxPoint x="745" y="450" />
            </Array>
          </mxGeometry>
        </mxCell>
        <mxCell id="t5MqxrgyaX5uheQcPYb9-1" value="&lt;div style=&quot;color: rgb(204, 204, 204); background-color: rgb(31, 31, 31); font-family: Consolas, &amp;quot;Courier New&amp;quot;, monospace; font-size: 14px; line-height: 19px;&quot;&gt;DataProvider_online&lt;/div&gt;" style="rounded=0;whiteSpace=wrap;html=1;" parent="1" vertex="1">
          <mxGeometry x="260" y="330" width="290" height="60" as="geometry" />
        </mxCell>
        <mxCell id="YeGRoMZNGMUW2OoXfC3H-43" value="" style="edgeStyle=orthogonalEdgeStyle;rounded=0;orthogonalLoop=1;jettySize=auto;html=1;" edge="1" parent="1" source="t5MqxrgyaX5uheQcPYb9-3" target="YeGRoMZNGMUW2OoXfC3H-40">
          <mxGeometry relative="1" as="geometry" />
        </mxCell>
        <mxCell id="t5MqxrgyaX5uheQcPYb9-3" value="&lt;div style=&quot;color: rgb(204, 204, 204); background-color: rgb(31, 31, 31); font-family: Consolas, &amp;quot;Courier New&amp;quot;, monospace; font-size: 14px; line-height: 19px;&quot;&gt;&lt;div style=&quot;line-height: 19px;&quot;&gt;Data.&lt;span style=&quot;color: #4ec9b0;&quot;&gt;custom&lt;/span&gt;.&lt;span style=&quot;color: #4ec9b0;&quot;&gt;Binance_server&lt;/span&gt;&lt;/div&gt;&lt;/div&gt;" style="rounded=0;whiteSpace=wrap;html=1;" parent="1" vertex="1">
          <mxGeometry x="-80" y="550" width="290" height="60" as="geometry" />
        </mxCell>
        <mxCell id="t5MqxrgyaX5uheQcPYb9-5" value="&lt;div style=&quot;color: rgb(204, 204, 204); background-color: rgb(31, 31, 31); font-family: Consolas, &amp;quot;Courier New&amp;quot;, monospace; font-size: 14px; line-height: 19px;&quot;&gt;&lt;div style=&quot;line-height: 19px;&quot;&gt;Datatransformer&lt;/div&gt;&lt;/div&gt;" style="rounded=0;whiteSpace=wrap;html=1;" parent="1" vertex="1">
          <mxGeometry x="600" y="540" width="290" height="60" as="geometry" />
        </mxCell>
        <mxCell id="t5MqxrgyaX5uheQcPYb9-7" value="&lt;div style=&quot;color: rgb(204, 204, 204); background-color: rgb(31, 31, 31); font-family: Consolas, &amp;quot;Courier New&amp;quot;, monospace; font-size: 14px; line-height: 19px;&quot;&gt;&lt;div style=&quot;line-height: 19px;&quot;&gt;SQL_operate.&lt;span style=&quot;color: #4ec9b0;&quot;&gt;DB_operate&lt;/span&gt;&lt;/div&gt;&lt;/div&gt;" style="rounded=0;whiteSpace=wrap;html=1;" parent="1" vertex="1">
          <mxGeometry x="260" y="540" width="290" height="60" as="geometry" />
        </mxCell>
        <mxCell id="YeGRoMZNGMUW2OoXfC3H-40" value="&lt;div style=&quot;color: rgb(204, 204, 204); background-color: rgb(31, 31, 31); font-family: Consolas, &amp;quot;Courier New&amp;quot;, monospace; font-size: 14px; line-height: 19px;&quot;&gt;&lt;div style=&quot;line-height: 19px;&quot;&gt;&lt;div style=&quot;line-height: 19px;&quot;&gt;BinanceDate&lt;/div&gt;&lt;/div&gt;&lt;/div&gt;" style="rounded=0;whiteSpace=wrap;html=1;" vertex="1" parent="1">
          <mxGeometry x="-80" y="690" width="290" height="60" as="geometry" />
        </mxCell>
      </root>
    </mxGraphModel>
  </diagram>
</mxfile>
